# xmcd
#
# Track frame offsets: 
#        150
#        25061
#        63744
#        91888
#        118256
#        156729
#        192785
#        220212
#        237958
#        271087
#        293467
#
# Disc length: 4213 seconds
#
# Revision: 0
# Processed by: cddbd v1.5.2PL0 Copyright (c) Steve Scherf et al.
# Submitted via: ExactAudioCopy v0.99pb4
#
DISCID=9d10730b
DTITLE=Wishbone Ash - Blowin' free cd2
DYEAR=2006
DGENRE=Rock
TTITLE0=Living proof
TTITLE1=In the skin
TTITLE2=Standing in the rain
TTITLE3=This strange affair
TTITLE4=Blowin' free
TTITLE5=Why don't we
TTITLE6=Throw down the sword
TTITLE7=Keeper of the light
TTITLE8=The king will come
TTITLE9=Hard times
TTITLE10=Lost cause in paradise
EXTD=
EXTT0=
EXTT1=
EXTT2=
EXTT3=
EXTT4=
EXTT5=
EXTT6=
EXTT7=
EXTT8=
EXTT9=
EXTT10=
PLAYORDER=
